<?xml version="1.0" encoding="UTF-8"?>
<svg width="16.163mm" height="17.446mm" version="1.1" viewBox="0 0 16.163 17.446" xmlns="http://www.w3.org/2000/svg"><g transform="translate(223.74 -187.13)"><path d="m-215.66 187.99c-2.848 0-0.53119 1.2415-2.9977 2.6655-2.4665 1.424-2.3832-1.2032-3.8072 1.2633s0.80951 1.0808 0.80951 3.9288c0 2.8481-2.2336 1.4623-0.80951 3.9288 1.424 2.4665 1.3407-0.16068 3.8072 1.2633 2.4665 1.424 0.14963 2.6655 2.9977 2.6655 2.8481 0 0.5312-1.2414 2.9977-2.6655 2.4665-1.424 2.3832 1.2032 3.8072-1.2633s-0.80952-1.0808-0.80952-3.9288 2.2336-1.4623 0.80952-3.9288c-1.424-2.4665-1.3408 0.16073-3.8072-1.2633-2.4665-1.424-0.14962-2.6655-2.9977-2.6655zm0 4.98a2.9218 2.9218 0 0 1 2.9218 2.9218 2.9218 2.9218 0 0 1-2.9218 2.9218 2.9218 2.9218 0 0 1-2.9218-2.9218 2.9218 2.9218 0 0 1 2.9218-2.9218z" fill="#a6a5a7" fill-rule="evenodd" stroke-width=".027639"/></g><path d="m14.289 1.4149a1.0712 1.0712 0 0 0-0.73432 0.32349l-5.4565 5.456-5.456-5.456a1.0718 1.0718 0 1 0-1.5157 1.5157l5.456 5.456-5.456 5.456a1.0712 1.0712 0 1 0 1.5141 1.5141l5.456-5.456 5.4565 5.456a1.0716 1.0716 0 0 0 1.5152-1.5157l-5.456-5.456 5.456-5.456a1.0712 1.0712 0 0 0-1e-3 -1.5369 1.0712 1.0712 0 0 0-0.77825-0.30076z" color="#000000" color-rendering="auto" dominant-baseline="auto" fill="#e10d0d" image-rendering="auto" shape-rendering="auto" solid-color="#000000" stroke="#e10d0d" stroke-width="1.3705" style="font-feature-settings:normal;font-variant-alternates:normal;font-variant-caps:normal;font-variant-ligatures:normal;font-variant-numeric:normal;font-variant-position:normal;isolation:auto;mix-blend-mode:normal;shape-padding:0;text-decoration-color:#000000;text-decoration-line:none;text-decoration-style:solid;text-indent:0;text-orientation:mixed;text-transform:none;white-space:normal"/></svg>
