<?xml version="1.0" encoding="UTF-8"?>
<svg width="16.163mm" height="17.446mm" version="1.1" viewBox="0 0 16.163 17.446" xmlns="http://www.w3.org/2000/svg"><g transform="translate(223.74 -187.13)"><path d="m-215.66 187.99c-2.848 0-0.53119 1.2415-2.9977 2.6655-2.4665 1.424-2.3832-1.2032-3.8072 1.2633-1.424 2.4665 0.80951 1.0808 0.80951 3.9288 0 2.8481-2.2336 1.4623-0.80951 3.9288 1.424 2.4665 1.3407-0.16068 3.8072 1.2633 2.4665 1.424 0.14963 2.6655 2.9977 2.6655 2.8481 0 0.5312-1.2414 2.9977-2.6655 2.4665-1.424 2.3832 1.2032 3.8072-1.2633 1.424-2.4665-0.80952-1.0808-0.80952-3.9288 0-2.848 2.2336-1.4623 0.80952-3.9288-1.424-2.4665-1.3408 0.16073-3.8072-1.2633-2.4665-1.424-0.14962-2.6655-2.9977-2.6655zm0 4.98a2.9218 2.9218 0 0 1 2.9218 2.9218 2.9218 2.9218 0 0 1-2.9218 2.9218 2.9218 2.9218 0 0 1-2.9218-2.9218 2.9218 2.9218 0 0 1 2.9218-2.9218z" fill="#a6a5a7" fill-rule="evenodd" stroke-width=".027639"/></g></svg>
