<?xml version="1.0" encoding="UTF-8"?>
<svg width="15.383mm" height="15.383mm" version="1.1" viewBox="0 0 15.383 15.383" xmlns="http://www.w3.org/2000/svg"><g transform="translate(-115.53 -123)"><g transform="matrix(.78604 0 0 .78604 24.556 27.962)"><g transform="translate(11.434 -.091169)" fill="#a6a5a7" fill-rule="evenodd" stroke-width=".26458"><rect x="104.6" y="127.16" width="5.312" height="7.2497"/><path d="m108.33 127.16 5.312-4.2333v15.716l-5.312-4.2333z"/></g><g transform="matrix(.84392 0 0 .84392 28.124 19.707)"><path transform="rotate(-75)" d="m-91.253 146.44a5.6568 5.6568 0 0 1-4.1927 5.464 5.6568 5.6568 0 0 1-6.363-2.6356l4.8989-2.8284z" fill="#a6a5a7" fill-rule="evenodd" stroke-width=".41674"/><path transform="rotate(-75)" d="m-89.922 146.54a6.9601 6.9601 0 0 1-5.1587 6.7229 6.9601 6.9601 0 0 1-7.829-3.2429" fill="none" stroke="#a6a5a7" stroke-width="1.2304"/><path transform="rotate(-75)" d="m-87.508 146.5a9.3869 9.3869 0 0 1-6.9574 9.067 9.3869 9.3869 0 0 1-10.559-4.3736" fill="none" stroke="#a6a5a7" stroke-width="1.6594"/></g></g></g></svg>
