<?xml version="1.0" encoding="UTF-8" standalone="no"?>
<!-- Created with Inkscape (http://www.inkscape.org/) -->

<svg
   xmlns:dc="http://purl.org/dc/elements/1.1/"
   xmlns:cc="http://creativecommons.org/ns#"
   xmlns:rdf="http://www.w3.org/1999/02/22-rdf-syntax-ns#"
   xmlns:svg="http://www.w3.org/2000/svg"
   xmlns="http://www.w3.org/2000/svg"
   xmlns:sodipodi="http://sodipodi.sourceforge.net/DTD/sodipodi-0.dtd"
   xmlns:inkscape="http://www.inkscape.org/namespaces/inkscape"
   width="304.95444mm"
   height="9.0744553mm"
   viewBox="0 0 304.95444 9.0744553"
   version="1.1"
   id="svg1591"
   inkscape:version="0.92.4 (5da689c313, 2019-01-14)"
   sodipodi:docname="wav.svg">
  <defs
     id="defs1585" />
  <sodipodi:namedview
     id="base"
     pagecolor="#ffffff"
     bordercolor="#666666"
     borderopacity="1.0"
     inkscape:pageopacity="0.0"
     inkscape:pageshadow="2"
     inkscape:zoom="5.6"
     inkscape:cx="1107.4936"
     inkscape:cy="-15.567337"
     inkscape:document-units="mm"
     inkscape:current-layer="layer1"
     showgrid="false"
     fit-margin-top="0"
     fit-margin-left="0"
     fit-margin-right="0"
     fit-margin-bottom="0"
     inkscape:window-width="1920"
     inkscape:window-height="1017"
     inkscape:window-x="1272"
     inkscape:window-y="-8"
     inkscape:window-maximized="1" />
  <metadata
     id="metadata1588">
    <rdf:RDF>
      <cc:Work
         rdf:about="">
        <dc:format>image/svg+xml</dc:format>
        <dc:type
           rdf:resource="http://purl.org/dc/dcmitype/StillImage" />
        <dc:title></dc:title>
      </cc:Work>
    </rdf:RDF>
  </metadata>
  <g
     inkscape:label="Layer 1"
     inkscape:groupmode="layer"
     id="layer1"
     transform="translate(159.92416,-132.95682)">
    <path
       id="path1317-1-2-8-9-8-6"
       style="fill:none;fill-opacity:1;stroke:#d27435;stroke-width:1;stroke-linecap:butt;stroke-linejoin:miter;stroke-miterlimit:4;stroke-dasharray:none;stroke-opacity:1"
       d="m -159.92416,141.28631 h 7.11147 c 0,0 0.26616,-7.2136 0.86531,-7.55952 0.59915,-0.34592 1.08329,-0.37374 1.73062,0 0.64733,0.37374 -0.58044,4.61347 0.8653,6.04762 2.6768,2.65533 6.10708,1.5119 11.20976,1.5119 m 0,0 h 7.11147 c 0,0 0.26616,-7.2136 0.86531,-7.55952 0.59915,-0.34592 1.08329,-0.37374 1.73062,0 0.64733,0.37374 -0.58044,4.61347 0.8653,6.04762 2.6768,2.65533 6.10708,1.5119 11.20976,1.5119 m 87.12984,0 h 7.11147 c 0,0 0.26616,-7.2136 0.86531,-7.55952 0.59915,-0.34592 1.08329,-0.37374 1.73062,0 0.64733,0.37374 -0.58044,4.61347 0.8653,6.04762 2.6768,2.65533 6.10708,1.5119 11.20976,1.5119 m -43.56492,0 h 7.11147 c 0,0 0.26616,-7.2136 0.86531,-7.55952 0.59915,-0.34592 1.08329,-0.37374 1.73062,0 0.64733,0.37374 -0.58044,4.61347 0.8653,6.04762 2.6768,2.65533 6.10708,1.5119 11.20976,1.5119 m -43.56492,0 h 7.11147 c 0,0 0.26616,-7.2136 0.86531,-7.55952 0.59915,-0.34592 1.08329,-0.37374 1.73062,0 0.64733,0.37374 -0.58044,4.61347 0.8653,6.04762 2.6768,2.65533 6.10708,1.5119 11.20976,1.5119 m -43.56492,0 h 7.11147 c 0,0 0.26616,-7.2136 0.86531,-7.55952 0.59915,-0.34592 1.08329,-0.37374 1.73062,0 0.64733,0.37374 -0.58044,4.61347 0.8653,6.04762 2.6768,2.65533 6.10708,1.5119 11.20976,1.5119 m -43.56492,0 h 7.11147 c 0,0 0.26616,-7.2136 0.86531,-7.55952 0.59915,-0.34592 1.08329,-0.37374 1.73062,0 0.64733,0.37374 -0.58044,4.61347 0.8653,6.04762 2.6768,2.65533 6.10708,1.5119 11.20976,1.5119 m 87.12984,0 h 7.11147 c 0,0 0.26616,-7.2136 0.86531,-7.55952 0.59915,-0.34592 1.08329,-0.37374 1.73062,0 0.64733,0.37374 -0.58044,4.61347 0.8653,6.04762 2.6768,2.65533 6.10708,1.5119 11.20976,1.5119 m 0,0 h 7.11147 c 0,0 0.26616,-7.2136 0.86531,-7.55952 0.59915,-0.34592 1.08329,-0.37374 1.73062,0 0.64733,0.37374 -0.58044,4.61347 0.8653,6.04762 2.6768,2.65533 6.10708,1.5119 11.20976,1.5119 m 87.12984,0 h 7.11147 c 0,0 0.26616,-7.2136 0.86531,-7.55952 0.59915,-0.34592 1.08329,-0.37374 1.73062,0 0.64733,0.37374 -0.58044,4.61347 0.8653,6.04762 2.6768,2.65533 6.10708,1.5119 11.20976,1.5119 m -43.56492,0 h 7.11147 c 0,0 0.26616,-7.2136 0.86531,-7.55952 0.59915,-0.34592 1.08329,-0.37374 1.73062,0 0.64733,0.37374 -0.58044,4.61347 0.8653,6.04762 2.6768,2.65533 6.10708,1.5119 11.20976,1.5119 m -43.56492,0 h 7.11147 c 0,0 0.26616,-7.2136 0.86531,-7.55952 0.59915,-0.34592 1.08329,-0.37374 1.73062,0 0.64733,0.37374 -0.58044,4.61347 0.8653,6.04762 2.6768,2.65533 6.10708,1.5119 11.20976,1.5119 m -43.56492,0 h 7.11147 c 0,0 0.26616,-7.2136 0.86531,-7.55952 0.59915,-0.34592 1.08329,-0.37374 1.73062,0 0.64733,0.37374 -0.58044,4.61347 0.8653,6.04762 2.6768,2.65533 6.10708,1.5119 11.20976,1.5119 m -43.56492,0 h 7.11147 c 0,0 0.26616,-7.2136 0.86531,-7.55952 0.59915,-0.34592 1.08329,-0.37374 1.73062,0 0.64733,0.37374 -0.58044,4.61347 0.8653,6.04762 2.6768,2.65533 6.10708,1.5119 11.20976,1.5119"
       inkscape:connector-curvature="0" />
  </g>
</svg>
